<?xml version="1.0" encoding="utf-8"?>
<!DOCTYPE svg PUBLIC "-//W3C//DTD SVG 1.1//EN" "http://www.w3.org/Graphics/SVG/1.1/DTD/svg11.dtd">
<svg style="width:308px;height:308px;" version="1.1" id="图形" xmlns="http://www.w3.org/2000/svg" xmlns:xlink="http://www.w3.org/1999/xlink" x="0px" y="0px" width="1063px" height="1024px" viewBox="0 0 1063 1024" enable-background="new 0 0 1063 1024" xml:space="preserve">
  <path class="svgpath" data-index="path_0" fill="#FCD832" d="M1036.089055 274.024881 788.674355 26.610181C815.180706 11.148143 846.104782 2.312692 879.237721 2.312692 980.86749 2.312692 1062.595406 84.040609 1062.595406 185.670377 1060.386543 218.803316 1051.551093 247.51853 1036.089055 274.024881ZM921.206111 190.066014C1089.101757 404.347774 1053.759956 713.610627 841.687057 883.693048L941.085874 983.113953C954.361138 996.367129 952.152276 1009.620304 943.294737 1016.246892 934.459286 1025.082343 923.414973 1027.291205 910.161798 1014.03803L806.345256 910.199399C634.031884 1025.082343 413.123535 1020.664617 249.645614 908.012625L143.598121 1014.03803C130.344945 1027.291205 117.091769 1025.082343 110.465182 1016.246892 103.838594 1007.411442 99.420869 996.367129 112.674044 983.113953L214.303813 881.484185C187.775373 859.395559 161.269021 832.889208 139.180395 806.382857-30.924113 589.914322 6.626551 278.442606 223.139263 108.338097 437.421024-63.953186 751.123691-26.402521 921.206111 190.066014ZM797.509805 318.202133C788.674355 309.366683 777.630042 307.15782 764.376866 320.410996L503.686902 581.078871 375.550782 452.942752C362.297607 439.689576 349.044431 441.898439 340.208981 448.525026 331.37353 457.360477 329.164668 468.40479 344.626706 483.866828L483.807139 623.047261C486.016001 625.256123 486.016001 625.256123 488.224864 625.256123 488.224864 625.256123 488.224864 625.256123 488.224864 627.464986 497.060314 636.300436 508.104627 638.509299 521.357803 625.256123L797.509805 349.126209C806.345256 338.081896 806.345256 327.037583 797.509805 318.202133ZM-3.7e-05 185.670377C-3.7e-05 84.040609 81.749968 2.312692 183.357647 2.312692 216.512675 2.312692 247.436752 11.148143 273.943103 26.610181L26.528403 274.024881C8.835413 247.51853-3.7e-05 218.803316-3.7e-05 185.670377Z" />

</svg>
