<?xml version="1.0" encoding="utf-8"?>
<!DOCTYPE svg PUBLIC "-//W3C//DTD SVG 1.1//EN" "http://www.w3.org/Graphics/SVG/1.1/DTD/svg11.dtd">
<svg style="width:308px;height:308px;" version="1.1" id="图形" xmlns="http://www.w3.org/2000/svg" xmlns:xlink="http://www.w3.org/1999/xlink" x="0px" y="0px" width="1024px" height="1024px" viewBox="0 0 1024 1024" enable-background="new 0 0 1024 1024" xml:space="preserve">
  <path class="svgpath" data-index="path_0" fill="#7d9099" d="M846.76 50.944c74.352 0.04 125.272 37.296 142.392 91.736 17.104 54.392-2.776 113.56-48.8 146.744-7.016 5.064-10.616 4.72-14.496-3.072-3.488-7.008-7.704-13.8-12.504-19.984-4.776-6.16-4.352-9.352 2.272-14.288 48.976-36.528 46.232-110.032-4.984-143.08-38.656-24.944-89.088-15.856-117.064 21.736-4.656 6.256-7.424 6.856-13.408 2.296-7.04-5.376-14.656-10.208-22.576-14.152-6.712-3.336-6.008-6.424-2.28-11.488C782.24 70.768 818.104 51.48 846.76 50.944z" />
<path class="svgpath" data-index="path_1" fill="#7d9099" d="M73.568 182.96c0.456 28.52 11.92 51.832 34.736 68.792 7.176 5.328 7.232 8.712 2.256 15.128-5.016 6.464-9.44 13.536-13.08 20.856-3.504 7.024-6.632 6.392-12.368 2.4C42.328 260.32 20.44 205.656 31.712 155.784c12.216-54.096 53.4-94.432 106.256-102.792 54.104-8.552 97.328 10.328 130.384 53.664 4.528 5.936 4.824 9.24-2.712 12.816-7.68 3.648-15.008 8.384-21.696 13.656-6.184 4.872-8.88 3.472-13.392-2.52-40.384-53.624-122.36-44.512-149.48 16.4C75.992 158.4 73.16 170.328 73.568 182.96z" />
<path class="svgpath" data-index="path_2" fill="#7d9099" d="M941.752 932.632c-32.536-32.448-64.872-65.088-97.608-97.328-5.488-5.408-5.816-8.288-0.52-14.448 70.816-82.44 106.68-178.152 107.672-286.832-0.184-33.016-3.656-65.592-11.008-97.808-56.688-248.184-312.968-399.808-561.384-320.84C178.024 179.24 53.92 371.736 75.816 581.984c9.4 90.232 45.112 169.304 104.024 237.896 6.488 7.552 4.984 10.8-1.04 16.736-32.488 32-64.56 64.424-96.904 96.576-5.352 5.328-9.264 11.144-8.864 18.872 0.464 8.944 4.656 15.776 13.176 19.152 9.672 3.832 17.928 1.272 25.2-6.024 32.912-33.032 66.112-65.792 98.752-99.096 5.968-6.088 8.968-5.792 15.344-0.4 102.544 86.744 220.728 121.248 353.52 102.112 84.056-12.112 157.976-47.928 221.864-103.968 4.984-4.368 7.408-3.56 11.496 0.696 12.104 12.616 24.648 24.816 37.008 37.176 21.336 21.336 42.68 42.672 64.008 64.008 7.312 7.32 15.816 9.392 25.32 5.128 9.216-4.136 12.888-11.776 12.32-21.64C950.632 942.208 946.464 937.336 941.752 932.632zM511.688 928.416C293.12 927.544 116.416 750.64 117.072 533.352c0.664-218.984 178.52-395.312 397.536-394.104 217.024 1.192 393.12 178.36 392.584 394.968C906.648 752.184 728.96 929.288 511.688 928.416z" />
<path class="svgpath" data-index="path_3" fill="#7d9099" d="M592.68 498.552c-19.952-45.584-72.832-65.52-117.888-43.928-6.152 2.952-9.232 2.152-13.736-2.416-28.16-28.576-56.648-56.832-85-85.224-6.352-6.36-13.376-10.88-22.848-8.472-17.592 4.472-22.456 24.384-9.008 37.96 28.72 28.992 57.6 57.824 86.616 86.512 4.208 4.16 5.176 7.152 2.384 13.008-22.576 47.328-1.024 101.04 48.152 119.768 6.8 2.584 8.544 5.68 8.512 12.488-0.256 62.064-0.168 124.136-0.136 186.208 0.008 16.608 8.168 26.432 21.904 26.664 14.368 0.24 22.872-9.592 22.904-26.712 0.056-30.864 0.016-61.728 0.016-92.592 0-30.864 0.288-61.728-0.2-92.584-0.128-7.768 2.216-11.12 9.536-13.952C591.184 596.936 612.832 544.592 592.68 498.552zM512.424 577.68c-23.872 0.224-43.712-19.656-43.696-43.776 0.016-24.576 19.024-43.544 43.6-43.512 24.408 0.032 43.336 19.272 43.192 43.912C555.384 557.96 536.008 577.456 512.424 577.68z" />

</svg>
