<?xml version="1.0" encoding="utf-8"?>
<!DOCTYPE svg PUBLIC "-//W3C//DTD SVG 1.1//EN" "http://www.w3.org/Graphics/SVG/1.1/DTD/svg11.dtd">
<svg style="width:308px;height:308px;" version="1.1" id="图形" xmlns="http://www.w3.org/2000/svg" xmlns:xlink="http://www.w3.org/1999/xlink" x="0px" y="0px" width="1109px" height="1024px" viewBox="0 0 1109 1024" enable-background="new 0 0 1109 1024" xml:space="preserve">
  <path class="svgpath" data-index="path_0" fill="#DE3636" d="M1062.245757 110.704363 791.665194 110.704363l-104.665498-102.601646c-5.301785-5.188589-12.47262-8.102728-19.969881-8.102728L441.16957-1.1e-05c-7.464355 0-14.66678 2.914139-19.969881 8.102728L316.535507 110.704363 45.922038 110.704363c-15.549972 0-28.220026 12.391013-28.220026 27.66326 0 15.256452 12.637149 27.664576 28.220026 27.664576l282.333204 0c7.495945 0 14.66678-2.914139 19.969881-8.102728l104.664182-102.584534 202.452365 0 104.664182 102.584534c5.304417 5.188589 12.44103 8.102728 19.971197 8.102728L1062.278663 166.032199c15.582877 0 28.220026-12.391013 28.220026-27.664576C1090.498689 123.112487 1077.860224 110.704363 1062.245757 110.704363L1062.245757 110.704363zM949.331429 276.752367c-15.615783 0-28.220026 12.408124-28.220026 27.680371l0 608.864181c0 30.495793-25.34011 55.343631-56.472959 55.343631L243.562257 968.64055c-31.134165 0-56.472959-24.847839-56.472959-55.343631L187.089298 304.432738c0-15.272247-12.604243-27.680371-28.220026-27.680371-15.549972 0-28.220026 12.408124-28.220026 27.680371l0 608.864181c0 61.00738 50.678903 110.703057 112.914328 110.703057l621.109093 0c62.268331 0 112.947234-49.664088 112.947234-110.703057L977.6199 304.432738c0-15.272247-12.637149-27.680371-28.221343-27.680371L949.331429 276.752367zM441.136664 830.272917 441.136664 304.432738c0-15.256452-12.604243-27.664576-28.220026-27.664576-15.549972 0-28.220026 12.39233-28.220026 27.664576l0 525.840179c0 15.273563 12.668739 27.664576 28.220026 27.664576C428.532421 857.936177 441.136664 845.562275 441.136664 830.272917L441.136664 830.272917zM723.469868 830.272917 723.469868 304.432738c0-15.256452-12.604243-27.664576-28.21871-27.664576-15.584194 0-28.220026 12.39233-28.220026 27.664576l0 525.840179c0 15.273563 12.604243 27.664576 28.220026 27.664576C710.865625 857.936177 723.469868 845.562275 723.469868 830.272917L723.469868 830.272917zM723.469868 830.272917" />

</svg>
