<?xml version="1.0" encoding="utf-8"?>
<!DOCTYPE svg PUBLIC "-//W3C//DTD SVG 1.1//EN" "http://www.w3.org/Graphics/SVG/1.1/DTD/svg11.dtd">
<svg style="width:308px;height:308px;" version="1.1" id="图形" xmlns="http://www.w3.org/2000/svg" xmlns:xlink="http://www.w3.org/1999/xlink" x="0px" y="0px" width="1024px" height="1024px" viewBox="0 0 1024 1024" enable-background="new 0 0 1024 1024" xml:space="preserve">
  <path class="svgpath" data-index="path_0" fill="#11cd6e" d="M942.850765 696.872294c-0.000205 140.106086-196.939162 253.68407-439.87561 253.68407-242.936448 0-439.875405-113.577984-439.875584-253.68407 3.6e-05-140.105933 243.249838 87.74999 483.837414 54.048666 258.452531-36.203878 395.913728-194.154598 395.913779-54.048666z" />
<path class="svgpath" data-index="path_1" fill="#11cd6e" d="M372.145669 443.404442c1.5e-05 70.542694-60.141599-46.199757-130.706785-46.199757-70.565192 0-124.832348 116.742451-124.832328 46.199757 1.5e-05-70.542694 57.204388-127.728794 127.769559-127.728794 70.565166 0 127.769533 57.186099 127.769554 127.728794z" />
<path class="svgpath" data-index="path_2" fill="#11cd6e" d="M881.585818 448.472678c5.1e-05 70.542336-60.141568-46.199808-130.706739-46.199808-70.565222 0-124.832358 116.742144-124.832358 46.199808 0-70.542848 57.204378-127.729152 127.769549-127.729152 70.565171 0 127.769549 57.186304 127.769549 127.729152z" />

</svg>
