<?xml version="1.0" encoding="utf-8"?>
<!DOCTYPE svg PUBLIC "-//W3C//DTD SVG 1.1//EN" "http://www.w3.org/Graphics/SVG/1.1/DTD/svg11.dtd">
<svg style="width:308px;height:308px;" version="1.1" id="图形" xmlns="http://www.w3.org/2000/svg" xmlns:xlink="http://www.w3.org/1999/xlink" x="0px" y="0px" width="1024px" height="1024px" viewBox="0 0 1024 1024" enable-background="new 0 0 1024 1024" xml:space="preserve">
  <path class="svgpath" data-index="path_0" fill="#7d9099" d="M128.260176 320.130088l767.479649 0c35.322483 0 63.956637-28.634154 63.956637-63.956637s-28.634154-63.956637-63.956637-63.956637l-767.479649 0c-35.322483 0-63.956637 28.634154-63.956637 63.956637S92.937692 320.130088 128.260176 320.130088z" />
<path class="svgpath" data-index="path_1" fill="#7d9099" d="M895.739824 703.869912l-767.479649 0c-35.322483 0-63.956637 28.634154-63.956637 63.956637s28.634154 63.956637 63.956637 63.956637l767.479649 0c35.322483 0 63.956637-28.634154 63.956637-63.956637S931.061284 703.869912 895.739824 703.869912z" />
<path class="svgpath" data-index="path_2" fill="#7d9099" d="M895.739824 448.043363l-767.479649 0c-35.322483 0-63.956637 28.634154-63.956637 63.956637 0 35.322483 28.634154 63.956637 63.956637 63.956637l767.479649 0c35.322483 0 63.956637-28.633131 63.956637-63.956637C959.696462 476.677517 931.061284 448.043363 895.739824 448.043363z" />

</svg>
