<?xml version="1.0" encoding="utf-8"?>
<!DOCTYPE svg PUBLIC "-//W3C//DTD SVG 1.1//EN" "http://www.w3.org/Graphics/SVG/1.1/DTD/svg11.dtd">
<svg style="width:308px;height:308px;" version="1.1" id="图形" xmlns="http://www.w3.org/2000/svg" xmlns:xlink="http://www.w3.org/1999/xlink" x="0px" y="0px" width="1024px" height="1024px" viewBox="0 0 1024 1024" enable-background="new 0 0 1024 1024" xml:space="preserve">
  <path class="svgpath" data-index="path_0" fill="#7D9099" d="M797.194926 63.817468l-570.390875 0c-44.998867 0-81.483826 36.474726-81.483826 81.483826l0 733.357504c0 45.019333 36.484959 81.523735 81.483826 81.523735l570.390875 0c44.997843 0 81.482803-36.504402 81.482803-81.523735L878.677729 145.30027C878.677729 100.291171 842.192769 63.817468 797.194926 63.817468M634.225227 104.558357l81.484849 0 0 142.597719-40.741913-40.74089-40.741913 40.74089L634.226251 104.558357zM308.2889 919.40071l-81.484849 0c-22.479991 0-40.74089-18.202571-40.74089-40.741913L186.063161 145.30027c0-22.479991 18.261922-40.741913 40.74089-40.741913l81.484849 0L308.2889 919.40071zM837.935816 878.658797c0 22.539342-18.261922 40.741913-40.74089 40.741913L349.031836 919.40071 349.031836 104.558357l244.451478 0L593.483314 349.011882l81.484849-81.484849 81.484849 81.484849L756.453013 104.558357l40.741913 0c22.478967 0 40.74089 18.262946 40.74089 40.741913L837.935816 878.658797z" />

</svg>
