<?xml version="1.0" standalone="no"?><!DOCTYPE svg PUBLIC "-//W3C//DTD SVG 1.1//EN" "http://www.w3.org/Graphics/SVG/1.1/DTD/svg11.dtd"><svg width="200" height="200" viewBox="0 0 200 200" version="1.1" xmlns="http://www.w3.org/2000/svg" xmlns:xlink="http://www.w3.org/1999/xlink"><defs><style type="text/css"><![CDATA[
@font-face { font-family: ifont; src: url("http://at.alicdn.com/t/font_1442373896_4754455.eot?#iefix") format("embedded-opentype"), url("http://at.alicdn.com/t/font_1442373896_4754455.woff") format("woff"), url("http://at.alicdn.com/t/font_1442373896_4754455.ttf") format("truetype"), url("http://at.alicdn.com/t/font_1442373896_4754455.svg#ifont") format("svg"); }

]]></style></defs><g class="transform-group"><g transform="scale(0.1953125, 0.1953125)"><path d="M576 336 912 0l48 48L624 384 576 336zM704 512 256 512l0 64 448 0L704 512zM832 896.1c0 35.3-28.5 63.9-63.7 63.9L191.7 960c-35.2 0-63.7-28.6-63.7-63.9L128 191.9c0-35.3 28.5-63.9 63.7-63.9L576 128 576 64 192.2 64C121.2 64 64 121.1 64 191.5l0 705c0 70.3 57.4 127.5 128.2 127.5l575.6 0c71 0 128.2-57.1 128.2-127.5L896 384l-64 0L832 896.1zM256 320l0 64 256 0 0-64L256 320zM256 768l448 0 0-64L256 704 256 768z" fill="#7D9099"></path></g></g></svg>