<?xml version="1.0" standalone="no"?><!DOCTYPE svg PUBLIC "-//W3C//DTD SVG 1.1//EN" "http://www.w3.org/Graphics/SVG/1.1/DTD/svg11.dtd"><svg width="200" height="200" viewBox="0 0 200 200" version="1.1" xmlns="http://www.w3.org/2000/svg" xmlns:xlink="http://www.w3.org/1999/xlink"><defs><style type="text/css"><![CDATA[
@font-face { font-family: ifont; src: url("//at.alicdn.com/t/font_1442373896_4754455.eot?#iefix") format("embedded-opentype"), url("//at.alicdn.com/t/font_1442373896_4754455.woff") format("woff"), url("//at.alicdn.com/t/font_1442373896_4754455.ttf") format("truetype"), url("//at.alicdn.com/t/font_1442373896_4754455.svg#ifont") format("svg"); }

]]></style></defs><g class="transform-group"><g transform="scale(0.1953125, 0.1953125)"><path d="M976.544 596.032c15.664 44.384 26.112 80.944 31.328 109.664s6.528 45.68 3.92 50.912l-3.92 9.776c-5.216 2.624-12.4 5.232-21.552 7.84-9.12 2.608-20.224 2.608-33.28 0-6.528-1.312-15.328-5.216-26.432-11.744-11.088-6.528-20.544-13.056-28.384-19.584l-13.696-9.792c-5.216 15.664-11.744 30.672-19.584 45.024l-31.328 50.912c24.8 7.84 44.384 19.584 58.752 35.248 7.824 7.824 13.376 15.664 16.64 23.504 3.264 7.824 4.896 13.696 4.896 17.632l0 7.824c0 26.112-17.632 46.992-52.864 62.656-22.208 10.432-46.672 18.272-73.44 23.488-26.752 5.232-47.312 7.84-61.664 7.84l-23.504 0c-5.216 2.608-35.232-1.312-90.064-11.744-9.136-1.312-17.952-3.6-26.432-6.864s-17.296-6.512-26.432-9.776c-9.12-3.264-15.664-5.552-19.584-6.864l-27.408-3.92c-7.824-1.296-16.976 0-27.408 3.92-1.312 0-10.768 3.6-28.4 10.768-17.616 7.184-32.304 11.424-44.048 12.736l-90.064 11.744c-54.832 1.296-107.68-9.136-158.608-31.328-10.464-3.92-19.28-8.816-26.432-14.688-7.184-5.872-12.432-11.744-15.664-17.632-3.264-5.872-5.584-11.088-6.848-15.664-1.312-4.576-1.968-8.176-1.968-10.784l-1.952-3.904C108.48 898.88 115.68 882.56 132.656 864.288c3.92-3.92 8.48-7.824 13.712-11.744 5.2-3.92 10.432-7.168 15.664-9.776 5.2-2.624 10.08-5.232 14.672-7.84 4.576-2.608 8.128-3.904 10.768-3.904l3.92-1.968c-11.744-16.976-22.224-33.936-31.328-50.912L140.48 733.088c-31.328 24.8-54.176 38.512-68.528 41.12-14.384 1.296-25.776 1.296-34.272 0-8.512-1.312-14.032-3.264-16.64-5.872l-3.92-1.968c-14.352-11.728-3.92-68.512 31.328-170.336 5.2-13.04 10.08-25.456 14.672-37.2 4.576-11.728 9.104-21.824 13.712-30.336 4.56-8.48 9.104-16.32 13.696-23.488 4.576-7.152 8.48-13.024 11.744-17.632 3.232-4.576 6.176-8.128 8.816-10.768 2.608-2.608 4.56-4.576 5.872-5.872l1.968-1.968c0-5.2-0.336-12.4-0.976-21.536-0.672-9.104-0.336-27.088 0.976-53.84 1.28-26.72 4.576-53.168 9.792-79.296 5.2-26.112 15.968-56.448 32.304-91.04 16.32-34.56 36.88-66.24 61.68-94.96 31.328-36.528 71.136-63.936 119.44-82.24 48.272-18.272 88.768-28.064 121.392-29.376l48.944 0c2.608 1.312 9.472 1.312 20.56 0 11.088-1.28 28.384 0 51.872 3.92 23.504 3.92 47.008 9.136 70.496 15.664 23.504 6.56 48.96 17.616 76.352 33.28s50.912 35.248 70.48 58.736c24.8 28.72 45.36 60.048 61.664 93.984 16.336 33.968 27.088 64.944 32.32 93.008 5.216 28.096 8.816 53.84 10.768 77.344 1.968 23.488 2.304 41.792 0.992 54.816l-1.952 21.536C930.864 489.664 954.352 532.112 976.544 596.032zM293.2 865.264c60.016 56.784 133.152 85.168 219.296 85.168 86.16 0 159.248-28.384 219.296-85.168s90.064-125.648 90.064-206.576c0-33.936-5.872-67.216-17.632-99.856-82.24 66.576-179.472 99.856-291.728 99.856-112.288 0-209.504-33.28-291.744-99.856-11.744 32.64-17.616 65.92-17.616 99.856C203.136 739.632 233.168 808.48 293.2 865.264zM377.392 394.368c-60.032 22.208-88.784 39.152-86.144 50.912 0 7.824 7.152 16.336 21.536 25.456 3.92 2.64 8.128 5.216 12.72 7.824 4.576 2.64 9.104 4.608 13.696 5.872 4.576 1.312 8.816 2.288 12.72 2.944 3.92 0.672 7.152 0.976 9.792 0.976l3.92 0c-3.92-3.92-7.84-9.792-11.744-17.616l-7.84-19.584c24.768 23.488 56.096 41.792 93.984 54.816 11.744 5.216 23.792 8.816 36.224 10.768 12.4 1.968 21.216 2.944 26.432 2.944l9.792-1.952c22.192 2.64 46.336-1.28 72.432-11.744 16.992-5.2 33.296-12.4 48.96-21.536 15.664-9.104 26.768-16.944 33.296-23.488l11.744-9.792c-2.624 7.824-5.232 14.384-7.84 19.584l-11.744 17.616c22.208-2.608 39.808-8.48 52.88-17.616 6.528-3.92 11.744-7.84 15.664-11.744 3.92-3.92 5.872-7.152 5.872-9.792L733.744 445.28c0-1.28-0.64-3.232-1.952-5.872-1.312-2.608-8.816-8.128-22.512-16.64-13.696-8.48-34.272-17.92-61.664-28.384-16.976-5.2-36.88-9.792-59.728-13.712-22.848-3.92-40.784-5.872-53.84-5.872l-21.536-1.952C461.6 374.128 416.56 381.328 377.392 394.368zM414.608 147.664c-19.584 0-35.92 9.488-48.944 28.384-13.056 18.928-19.584 42.096-19.584 69.504 0 13.056 1.632 25.776 4.896 38.176 3.232 12.432 8.128 22.848 14.688 31.328 6.528 8.512 14 15.36 22.512 20.56 8.48 5.216 17.296 7.824 26.432 7.824 19.584 0 35.904-9.456 48.96-28.384 13.024-18.896 19.584-42.096 19.584-69.504 0-13.024-1.664-25.744-4.896-38.176-3.264-12.4-8.16-22.816-14.672-31.328-6.56-8.48-14.032-15.328-22.528-20.56C432.528 150.304 423.712 147.664 414.608 147.664zM438.096 284.72c-19.584 0-29.376-13.024-29.376-39.168 0-26.096 9.792-39.152 29.376-39.152 19.584 0 29.36 13.056 29.36 39.152C467.472 271.68 457.68 284.72 438.096 284.72zM659.344 176.048c-13.04-18.896-29.36-28.384-48.944-28.384-19.6 0-35.904 9.488-48.96 28.384-13.056 18.928-19.584 42.096-19.584 69.504 0 27.408 6.512 50.608 19.584 69.504 13.04 18.928 29.36 28.384 48.96 28.384 19.584 0 35.888-9.456 48.944-28.384 13.056-18.896 19.6-42.096 19.6-69.504C678.944 218.144 672.4 194.976 659.344 176.048zM564.384 271.008c-5.872-1.28-8.176-4.56-6.864-9.792 2.608-13.024 7.504-24.768 14.688-35.248 7.168-10.448 15.984-14.992 26.432-13.696 19.584 2.64 28.064 22.224 25.456 58.736-1.312 5.232-4.576 7.84-9.792 7.84-6.512-1.28-9.12-4.576-7.824-9.792 1.312-24.768-1.952-37.856-9.776-39.168-10.448-1.28-17.648 10.464-21.552 35.248C573.84 270.352 570.272 272.32 564.384 271.008z" fill="#272636"></path></g></g></svg>