<?xml version="1.0" standalone="no"?><!DOCTYPE svg PUBLIC "-//W3C//DTD SVG 1.1//EN" "http://www.w3.org/Graphics/SVG/1.1/DTD/svg11.dtd"><svg width="200" height="200" viewBox="0 0 200 200" version="1.1" xmlns="http://www.w3.org/2000/svg" xmlns:xlink="http://www.w3.org/1999/xlink"><defs><style type="text/css"><![CDATA[
@font-face { font-family: ifont; src: url("//at.alicdn.com/t/font_1442373896_4754455.eot?#iefix") format("embedded-opentype"), url("//at.alicdn.com/t/font_1442373896_4754455.woff") format("woff"), url("//at.alicdn.com/t/font_1442373896_4754455.ttf") format("truetype"), url("//at.alicdn.com/t/font_1442373896_4754455.svg#ifont") format("svg"); }

]]></style></defs><g class="transform-group"><g transform="scale(0.1953125, 0.1953125)"><path d="M1015.232 381.696c-8.768-26.432-31.232-45.76-58.368-49.92l-263.872-40.96L578.24 42.688C566.272 16.576 540.352 0 511.936 0c-28.288 0-54.208 16.64-66.24 42.752L331.008 290.816l-263.936 40.96C39.936 336 17.408 355.264 8.704 381.696 0 408.128 6.592 437.312 25.728 457.152l193.344 201.344-44.8 279.104c-4.48 28.096 7.104 56.256 30.08 72.768C216.896 1019.392 231.68 1024 246.528 1024c12.16 0 24.384-3.136 35.392-9.28l230.08-129.152 230.08 129.152C753.152 1020.864 765.248 1024 777.472 1024c14.72 0 29.504-4.608 42.112-13.632 22.848-16.512 34.624-44.608 30.016-72.768l-31.36-195.392c-109.12 6.272-340.416 15.488-498.752-6.976-26.048-1.856-24.832-20.224-10.816-32.512 53.504-50.88 182.528-156.288 239.552-202.496 17.152-14.144 12.8-22.784-4.288-27.84C486.592 463.168 366.464 443.584 297.6 432.384 284.608 428.864 292.032 415.552 302.08 414.72c78.72-10.88 232.768-24.192 411.84 2.048 22.656 0 38.848 16.704 22.848 32.256-51.392 47.552-179.456 149.696-235.648 202.24-25.216 24.256-40.384 31.104-2.048 35.904 121.088 22.144 245.184 37.12 317.568 44.736l-11.904-73.344 193.472-201.344C1017.344 437.312 1024 408.128 1015.232 381.696zM817.344 742.144c56.128-1.728 94.272-3.904 94.272-3.904s-37.632-0.64-95.104-6.272C818.24 734.656 815.744 741.504 817.344 742.144z" fill="#272636"></path></g></g></svg>