<?xml version="1.0" encoding="utf-8"?>
<!DOCTYPE svg PUBLIC "-//W3C//DTD SVG 1.1//EN" "http://www.w3.org/Graphics/SVG/1.1/DTD/svg11.dtd">
<svg style="width:308px;height:308px;" version="1.1" id="图形" xmlns="http://www.w3.org/2000/svg" xmlns:xlink="http://www.w3.org/1999/xlink" x="0px" y="0px" width="1024px" height="1024px" viewBox="0 0 1024 1024" enable-background="new 0 0 1024 1024" xml:space="preserve">
  <path class="svgpath" data-index="path_0" fill="#df3636" d="M290.479791 385.29832m-65.266469 0a63.78 63.78 0 1 0 130.532939 0 63.78 63.78 0 1 0 -130.532939 0Z" />
<path class="svgpath" data-index="path_1" fill="#df3636" d="M733.884506 385.29832m-65.266469 0a63.78 63.78 0 1 0 130.532939 0 63.78 63.78 0 1 0 -130.532939 0Z" />
<path class="svgpath" data-index="path_2" fill="#df3636" d="M798.670022 830.503031c-12.518105-1.305739-28.879748-14.240329-35.470863-20.920472-251.953336-251.452939-503.69894-0.560772-503.69894-0.560772s-0.007163-0.002047-0.01228-0.00307c0.01228 0.00307-23.64349 26.426883-49.178049 19.831674-22.464641-5.803169-31.219026-28.138874-30.312376-43.887556 1.768273-30.699186 25.770943-51.561329 25.770943-51.561329 324.926324-303.184137 616.951307 3.897773 616.951307 3.897773l0 0c13.879102 13.211906 18.399045 30.16502 19.806091 42.441625C845.713454 807.531853 826.432319 833.398987 798.670022 830.503031z" />

</svg>
