<?xml version="1.0" encoding="utf-8"?>
<!DOCTYPE svg PUBLIC "-//W3C//DTD SVG 1.1//EN" "http://www.w3.org/Graphics/SVG/1.1/DTD/svg11.dtd">
<svg style="width:308px;height:308px;" version="1.1" id="图形" xmlns="http://www.w3.org/2000/svg" xmlns:xlink="http://www.w3.org/1999/xlink" x="0px" y="0px" width="1024px" height="1024px" viewBox="0 0 1024 1024" enable-background="new 0 0 1024 1024" xml:space="preserve">
  <path class="svgpath" data-index="path_0" fill="#df3636" d="M393.418 308.92c0-48.559-39.358-87.917-87.909-87.917s-87.916 39.358-87.916 87.917c0 48.551 39.362 87.908 87.916 87.908s87.909-39.357 87.909-87.908v0zM705.1 221.001c-48.551 0-87.909 39.358-87.909 87.917 0 48.551 39.358 87.908 87.909 87.908 48.559 0 87.917-39.357 87.917-87.908 0-48.559-39.358-87.917-87.917-87.917v0zM689.119 676.544c0 0-78.519-55.942-184.502-55.942-102.342 0-183.126 55.942-183.126 55.942-23.14 16.454-42.412 34.646-47.957 47.957-5.541 13.299-3.652 37.413 7.993 47.947 11.645 10.535 25.655 15.2 43.957 7.997 18.297-7.21 68.993-63.941 179.132-63.941 105.006 0 184.502 63.941 184.502 63.941 17.065 8.177 31.372 9.199 47.957-7.997 18.148-18.825 7.559-46.355 0-55.942-8.909-11.294-24.916-23.909-47.957-39.959v0zM689.119 676.544z" />

</svg>
