<?xml version="1.0" encoding="utf-8"?>
<!DOCTYPE svg PUBLIC "-//W3C//DTD SVG 1.1//EN" "http://www.w3.org/Graphics/SVG/1.1/DTD/svg11.dtd">
<svg style="width:308px;height:308px;" version="1.1" id="图形" xmlns="http://www.w3.org/2000/svg" xmlns:xlink="http://www.w3.org/1999/xlink" x="0px" y="0px" width="1024px" height="1024px" viewBox="0 0 1024 1024" enable-background="new 0 0 1024 1024" xml:space="preserve">
  <path class="svgpath" data-index="path_0" fill="#CBCBCB" d="M900.352 826.525538 770.107077 708.923077 768 708.923077l-34.048-34.048c-54.980923 80.049231-147.042462 132.608-251.411692 132.608-168.448 0-304.994462-136.684308-304.994462-305.309538S314.092308 196.883692 482.520615 196.883692c168.428308 0 305.014154 136.664615 305.014154 305.289846 0 48.659692-11.677538 94.483692-31.901538 135.305846l29.262769 29.262769c26.801231-48.915692 42.358154-104.841846 42.358154-164.568615C827.273846 311.827692 672.925538 157.538462 482.56 157.538462 292.174769 157.538462 137.846154 311.827692 137.846154 502.173538s154.328615 344.654769 344.713846 344.654769c90.761846 0 173.095385-35.347692 234.653538-92.691692l144.049231 131.406769c0 0 24.083692 7.305846 39.069538-19.672615C912.305231 844.307692 900.352 826.525538 900.352 826.525538z" />

</svg>
