<?xml version="1.0" standalone="no"?><!DOCTYPE svg PUBLIC "-//W3C//DTD SVG 1.1//EN" "http://www.w3.org/Graphics/SVG/1.1/DTD/svg11.dtd"><svg width="200" height="200" viewBox="0 0 200 200" version="1.1" xmlns="http://www.w3.org/2000/svg" xmlns:xlink="http://www.w3.org/1999/xlink"><defs><style type="text/css"><![CDATA[
@font-face { font-family: ifont; src: url("http://at.alicdn.com/t/font_1442373896_4754455.eot?#iefix") format("embedded-opentype"), url("http://at.alicdn.com/t/font_1442373896_4754455.woff") format("woff"), url("http://at.alicdn.com/t/font_1442373896_4754455.ttf") format("truetype"), url("http://at.alicdn.com/t/font_1442373896_4754455.svg#ifont") format("svg"); }

]]></style></defs><g class="transform-group"><g transform="scale(0.1953125, 0.1953125)"><path d="M755.2 704c-53.76 0-102.4 28.16-128 71.68l-240.64-168.96c7.68-17.92 10.24-35.84 10.24-56.32 0-33.28-10.24-64-28.16-89.6l194.56-168.96c28.16 33.28 69.12 53.76 115.2 53.76 84.48 0 153.6-69.12 153.6-153.6s-69.12-153.6-153.6-153.6-153.6 69.12-153.6 153.6c0 20.48 5.12 38.4 10.24 56.32 0 0-2.56 0-2.56 0L332.8 424.96c-25.6-17.92-56.32-28.16-89.6-28.16-84.48 0-153.6 69.12-153.6 153.6s69.12 153.6 153.6 153.6c46.08 0 87.04-20.48 115.2-53.76l245.76 171.52c-2.56 10.24-5.12 23.04-5.12 35.84 0 84.48 69.12 153.6 153.6 153.6s153.6-69.12 153.6-153.6S839.68 704 755.2 704zM678.4 89.6c56.32 0 102.4 46.08 102.4 102.4s-46.08 102.4-102.4 102.4-102.4-46.08-102.4-102.4S622.08 89.6 678.4 89.6zM243.2 652.8c-56.32 0-102.4-46.08-102.4-102.4 0-56.32 46.08-102.4 102.4-102.4s102.4 46.08 102.4 102.4C345.6 606.72 299.52 652.8 243.2 652.8zM755.2 960c-56.32 0-102.4-46.08-102.4-102.4s46.08-102.4 102.4-102.4 102.4 46.08 102.4 102.4S811.52 960 755.2 960z" fill="#33475f"></path></g></g></svg>