<?xml version="1.0" encoding="utf-8"?>
<!DOCTYPE svg PUBLIC "-//W3C//DTD SVG 1.1//EN" "http://www.w3.org/Graphics/SVG/1.1/DTD/svg11.dtd">
<svg style="width:308px;height:308px;" version="1.1" id="图形" xmlns="http://www.w3.org/2000/svg" xmlns:xlink="http://www.w3.org/1999/xlink" x="0px" y="0px" width="1076px" height="1024px" viewBox="0 0 1076 1024" enable-background="new 0 0 1076 1024" xml:space="preserve">
  <path class="svgpath" data-index="path_0" fill="#7d9099" d="M813.233 961.798c-4.485 0-6.728 0-11.212-2.243l-266.857-141.277-266.857 141.277c-6.727 4.485-15.698 2.243-24.667-2.243-6.728-4.485-11.212-13.455-8.97-22.425l51.577-298.251-215.278-210.793c-6.728-6.728-8.97-15.698-6.728-22.425 2.243-8.97 8.97-13.455 17.94-15.697l298.251-42.608 134.549-271.342c6.728-15.698 33.638-15.698 40.365 0l134.549 271.342 298.251 42.608c8.97 2.242 15.697 6.727 17.94 15.697s0 17.94-6.728 22.425l-215.278 210.793 51.577 298.251c2.243 8.97-2.243 17.94-8.97 22.425-4.485 2.243-8.97 4.485-13.455 4.485zM535.165 768.943c4.485 0 6.727 0 11.212 2.243l237.704 125.579-44.85-264.613c-2.242-6.728 2.243-15.698 6.727-20.183l192.854-188.369-266.857-38.122c-6.727 0-13.455-6.728-17.94-11.213l-118.852-239.946-118.852 239.946c-2.242 6.727-8.97 11.213-17.94 11.213l-264.613 38.123 192.854 188.369c4.485 4.485 6.727 13.455 6.727 20.183l-44.85 264.613 237.704-125.579c2.242 0 4.485-2.243 8.97-2.243z" />

</svg>
