<?xml version="1.0" encoding="utf-8"?>
<!DOCTYPE svg PUBLIC "-//W3C//DTD SVG 1.1//EN" "http://www.w3.org/Graphics/SVG/1.1/DTD/svg11.dtd">
<svg style="width:308px;height:308px;" version="1.1" id="图形" xmlns="http://www.w3.org/2000/svg" xmlns:xlink="http://www.w3.org/1999/xlink" x="0px" y="0px" width="1024px" height="1024px" viewBox="0 0 1024 1024" enable-background="new 0 0 1024 1024" xml:space="preserve">
  <path class="svgpath" data-index="path_0" fill="#7d9099" d="M512.035721 12.883349C233.221953 12.883349 6.370233 239.663628 6.370233 518.405953 6.370233 797.195907 233.221953 1024 512.035721 1024 790.825674 1024 1017.629767 797.195907 1017.629767 518.405953 1017.629767 239.663628 790.825674 12.883349 512.035721 12.883349L512.035721 12.883349ZM527.181395 987.517023 527.181395 911.931535C527.181395 902.072558 519.179907 894.07107 509.32093 894.07107 499.461953 894.07107 491.436651 902.072558 491.436651 911.931535L491.436651 987.231256C247.41507 976.586419 51.545302 779.478326 42.948465 535.004279L122.439442 535.004279C132.274605 535.004279 140.299907 527.002791 140.299907 517.143814 140.299907 507.284837 132.274605 499.283349 122.439442 499.283349L43.067535 499.283349C52.950326 255.88093 248.486698 60.011163 491.865302 49.628279 491.79386 50.342698 491.436651 50.96186 491.436651 51.723907L491.436651 131.238698C491.436651 141.121488 499.461953 149.099163 509.32093 149.099163 519.179907 149.099163 527.181395 141.121488 527.181395 131.238698L527.181395 51.723907C527.181395 50.866605 526.800372 50.152186 526.657488 49.342512 772.560372 56.962977 970.978233 254.023442 980.932465 499.283349L903.179907 499.283349C893.32093 499.283349 885.319442 507.284837 885.319442 517.143814 885.319442 527.002791 893.32093 535.004279 903.179907 535.004279L981.075349 535.004279C972.430884 781.288186 773.679628 979.610791 527.181395 987.517023L527.181395 987.517023ZM707.000558 362.305488 545.39907 475.445581C535.682977 467.658419 523.53786 462.800372 510.154419 462.800372 504.105674 462.800372 498.366512 464.014884 492.889302 465.753302L348.838698 260.667535C343.218605 252.618419 332.097488 250.64186 323.953116 256.333395 315.880186 262.001116 313.951256 273.146047 319.642791 281.195163L463.979163 486.709581C457.311256 496.044651 453.262884 507.356279 453.262884 519.691907 453.262884 551.03107 478.743814 576.535814 510.154419 576.535814 541.493581 576.535814 566.974512 551.03107 566.974512 519.691907 566.974512 514.714791 566.141023 509.975814 564.950326 505.379721L727.480558 391.549023C735.601116 385.905116 737.530047 374.760186 731.88614 366.663442 726.242233 358.590512 715.121116 356.637767 707.000558 362.305488L707.000558 362.305488ZM510.154419 540.814884C498.461767 540.814884 488.983814 531.33693 488.983814 519.691907 488.983814 508.02307 498.461767 498.521302 510.154419 498.521302 521.775628 498.521302 531.253581 508.02307 531.253581 519.691907 531.253581 531.33693 521.775628 540.814884 510.154419 540.814884L510.154419 540.814884Z" />

</svg>
