<?xml version="1.0" encoding="utf-8"?>
<!DOCTYPE svg PUBLIC "-//W3C//DTD SVG 1.1//EN" "http://www.w3.org/Graphics/SVG/1.1/DTD/svg11.dtd">
<svg style="width:308px;height:308px;" version="1.1" id="图形" xmlns="http://www.w3.org/2000/svg" xmlns:xlink="http://www.w3.org/1999/xlink" x="0px" y="0px" width="1025px" height="1024px" viewBox="0 0 1025 1024" enable-background="new 0 0 1025 1024" xml:space="preserve">
  <path class="svgpath" data-index="path_0" fill="#93a3ab" d="M555.904032 449.248c-41.728-76.832-123.392-125.888-211.296-125.888-122.08 0-221.088 85.408-237.184 201.344C46.016032 538.528 3.2e-05 593.472 3.2e-05 659.008c0 75.904 61.76 137.696 137.664 137.696 31.936 0 61.632-10.368 85.536-29.536 38.496 24.672 78.4 36.704 121.408 36.704 40.672 0 68.288-6.464 100.064-24.064 27.04 15.744 57.6 24.064 89.312 24.064 98.144 0 178.016-79.872 178.016-178.016C712.000032 535.136 643.744032 460.064 555.904032 449.248zM533.984032 755.936c-26.944 0-52.768-8.16-74.688-23.584-7.104-4.96-15.968-5.504-23.36-2.272-1.696 0.576-3.36 1.312-4.96 2.272-29.408 18.048-49.568 23.584-86.368 23.584-38.88 0-73.472-12.192-108.864-38.336-4.416-3.264-9.568-4.672-14.656-4.608-6.624-0.128-13.28 2.368-18.112 7.648-16.864 18.368-39.456 28.096-65.28 28.096-49.472 0-89.728-40.256-89.728-89.76 0-49.472 40.256-89.728 89.728-89.728 17.312 0 34.08 4.928 48.544 14.24 11.136 7.2 25.952 3.968 33.152-7.168 7.168-11.136 3.968-25.984-7.168-33.12-16.96-10.944-36-17.92-55.872-20.64 16.48-87.68 93.696-151.328 188.288-151.328 61.984 0 120 30.528 155.808 79.808-43.648 8.448-83.264 33.056-110.016 69.472-7.84 10.656-5.536 25.664 5.152 33.504s25.664 5.536 33.504-5.152c24.448-33.28 63.68-53.152 104.928-53.152 71.712 0 130.08 58.336 130.08 130.048C664.064032 697.6 605.696032 755.936 533.984032 755.936z" />
<path class="svgpath" data-index="path_1" fill="#93a3ab" d="M711.040032 287.648l-0.064-41.92c-0.032-8.096-6.592-14.624-14.656-14.592-8.064 0-14.624 6.56-14.624 14.624l0.096 42.304C691.552032 287.296 701.344032 287.2 711.040032 287.648z" />
<path class="svgpath" data-index="path_2" fill="#93a3ab" d="M867.040032 361.088l29.536-29.632c5.728-5.728 5.696-15.008 0-20.672-5.76-5.728-15.008-5.696-20.672 0.032l-29.952 30.016C853.376032 347.104 860.448032 353.856 867.040032 361.088z" />
<path class="svgpath" data-index="path_3" fill="#93a3ab" d="M967.232032 523.328c1.952 0 3.776-0.416 5.472-1.088 5.376-2.144 9.12-7.392 9.12-13.568 0-8.064-6.56-14.624-14.624-14.592l-42.304 0.064c0.8 9.792 0.896 19.552 0.448 29.248L967.232032 523.328z" />
<path class="svgpath" data-index="path_4" fill="#93a3ab" d="M864.512032 446.144c-36.736-90.688-140-134.4-230.688-97.696-20.32 8.224-38.24 19.808-53.504 33.856 4.832 6.016 9.44 12.256 13.824 18.656 12.928-12.224 28.128-22.048 45.056-28.928 27.488-11.136 57.248-13.536 86.048-6.976 9.056 2.048 14.752 11.072 12.672 20.128-2.048 9.024-11.072 14.688-20.128 12.64-22.08-5.024-44.896-3.2-66.016 5.376-7.488 3.04-14.496 6.88-20.992 11.328 84.192 36.48 142.048 120.384 142.048 216.16 0 15.552-1.6 30.784-4.512 45.504C858.016032 638.88 900.992032 536.32 864.512032 446.144z" />
<path class="svgpath" data-index="path_5" fill="#93a3ab" d="M897.952032 404.64c4.096 7.52 7.872 15.328 11.168 23.456 2.208 5.44 4.096 10.912 5.856 16.416l94.176-38.144c11.136-4.512 16.448-17.152 11.936-28.256-4.48-11.136-17.12-16.48-28.256-11.968l-94.432 38.24C898.240032 404.448 898.080032 404.544 897.952032 404.64z" />
<path class="svgpath" data-index="path_6" fill="#93a3ab" d="M843.488032 219.136C848.192032 208.096 843.008032 195.36 832.000032 190.688c-11.072-4.672-23.776 0.48-28.48 11.488l-39.712 93.856c-0.064 0.16-0.128 0.32-0.192 0.512 13.952 4.096 27.36 9.504 40.256 16.16L843.488032 219.136z" />
<path class="svgpath" data-index="path_7" fill="#93a3ab" d="M808.608032 710.72c-0.032-0.16-0.16-0.288-0.224-0.48-7.552 4.128-15.36 7.904-23.488 11.2-5.44 2.176-10.912 4.096-16.416 5.856l38.144 94.144c4.512 11.136 17.12 16.512 28.256 12 11.136-4.544 16.48-17.184 11.968-28.288L808.608032 710.72z" />
<path class="svgpath" data-index="path_8" fill="#93a3ab" d="M872.160032 658.272c-6.272 7.424-13.024 14.464-20.288 21.088l29.632 29.536c4.32 4.288 10.56 5.344 15.808 3.232 1.824-0.704 3.424-1.824 4.864-3.264 5.696-5.728 5.696-14.976-0.032-20.672L872.160032 658.272z" />
<path class="svgpath" data-index="path_9" fill="#93a3ab" d="M1010.752032 615.872l-93.824-39.712c-0.16-0.096-0.32-0.096-0.512-0.16-4.096 13.888-9.504 27.36-16.192 40.224l93.568 39.616c5.536 2.336 11.488 2.208 16.64 0.128 5.152-2.08 9.504-6.112 11.84-11.648C1026.944032 633.28 1021.824032 620.576 1010.752032 615.872z" />
<path class="svgpath" data-index="path_10" fill="#93a3ab" d="M592.256032 315.04c7.552-4.128 15.36-7.872 23.488-11.168 5.44-2.208 10.944-4.096 16.416-5.856L594.016032 203.84c-4.512-11.104-17.152-16.48-28.256-11.968-11.136 4.512-16.512 17.152-11.968 28.256L592.000032 314.56C592.096032 314.752 592.192032 314.88 592.256032 315.04z" />

</svg>
