<?xml version="1.0" encoding="utf-8"?>
<!DOCTYPE svg PUBLIC "-//W3C//DTD SVG 1.1//EN" "http://www.w3.org/Graphics/SVG/1.1/DTD/svg11.dtd">
<svg style="width:308px;height:308px;" version="1.1" id="图形" xmlns="http://www.w3.org/2000/svg" xmlns:xlink="http://www.w3.org/1999/xlink" x="0px" y="0px" width="1214px" height="1024px" viewBox="0 0 1214 1024" enable-background="new 0 0 1214 1024" xml:space="preserve">
  <path class="svgpath" data-index="path_0" fill="#93a3ab" d="M985.050074 379.259259c-9.443556-85.333333-81.768296-151.703704-169.642667-151.703704-40.087704 0-76.951704 13.842963-106.078815 36.977778C676.370963 155.344593 575.032889 75.851852 455.111111 75.851852c-146.62163 0-265.481481 118.859852-265.481481 265.481481 0 14.260148 1.137778 28.254815 3.299556 41.870222C125.838222 398.904889 75.851852 459.207111 75.851852 530.962963c0 83.77837 68.039111 151.703704 151.589926 151.703704l758.746074 0c83.702519 0 151.589926-68.077037 151.589926-151.703704 0-83.77837-68.039111-151.703704-151.589926-151.703704L985.050074 379.259259zM0 530.962963c0-84.081778 45.814519-157.696 113.85363-197.101037 3.982222-185.078519 155.230815-333.861926 341.257481-333.861926 122.652444 0 230.172444 64.663704 290.322963 161.754074 22.186667-6.561185 45.662815-10.05037 69.973333-10.05037 105.623704 0 195.697778 66.408296 230.817185 159.744C1142.708148 337.806222 1213.62963 426.097778 1213.62963 530.962963c0 125.421037-101.869037 227.555556-227.555556 227.555556l-758.518519 0C101.906963 758.518519 0 656.649481 0 530.962963L0 530.962963zM303.407407 948.148148c-21.086815 0-37.925926-17.142519-37.925926-38.267259l0-75.131259c0-21.466074 16.990815-38.267259 37.925926-38.267259 21.086815 0 37.925926 17.142519 37.925926 38.267259l0 75.131259C341.333333 931.346963 324.342519 948.148148 303.407407 948.148148L303.407407 948.148148zM606.814815 948.148148c-21.086815 0-37.925926-17.142519-37.925926-38.267259l0-75.131259c0-21.466074 16.990815-38.267259 37.925926-38.267259 21.086815 0 37.925926 17.142519 37.925926 38.267259l0 75.131259C644.740741 931.346963 627.749926 948.148148 606.814815 948.148148L606.814815 948.148148zM910.222222 948.148148c-21.086815 0-37.925926-17.142519-37.925926-38.267259l0-75.131259c0-21.466074 16.990815-38.267259 37.925926-38.267259 21.086815 0 37.925926 17.142519 37.925926 38.267259l0 75.131259C948.148148 931.346963 931.157333 948.148148 910.222222 948.148148L910.222222 948.148148zM455.111111 1024c-21.086815 0-37.925926-17.142519-37.925926-38.267259l0-75.131259c0-21.466074 16.990815-38.267259 37.925926-38.267259 21.086815 0 37.925926 17.142519 37.925926 38.267259l0 75.131259C493.037037 1007.198815 476.046222 1024 455.111111 1024L455.111111 1024zM758.518519 1024c-21.086815 0-37.925926-17.142519-37.925926-38.267259l0-75.131259c0-21.466074 16.990815-38.267259 37.925926-38.267259 21.086815 0 37.925926 17.142519 37.925926 38.267259l0 75.131259C796.444444 1007.198815 779.45363 1024 758.518519 1024L758.518519 1024z" />
<path class="svgpath" data-index="path_1" fill="#93a3ab" d="M985.050074 379.259259c-9.443556-85.333333-81.768296-151.703704-169.642667-151.703704-40.087704 0-76.951704 13.842963-106.078815 36.977778C676.370963 155.344593 575.032889 75.851852 455.111111 75.851852c-146.62163 0-265.481481 118.859852-265.481481 265.481481 0 14.260148 1.137778 28.254815 3.299556 41.870222C125.838222 398.904889 75.851852 459.207111 75.851852 530.962963c0 83.77837 68.039111 151.703704 151.589926 151.703704l758.746074 0c83.702519 0 151.589926-68.077037 151.589926-151.703704 0-83.77837-68.039111-151.703704-151.589926-151.703704L985.050074 379.259259zM0 530.962963c0-84.081778 45.814519-157.696 113.85363-197.101037 3.982222-185.078519 155.230815-333.861926 341.257481-333.861926 122.652444 0 230.172444 64.663704 290.322963 161.754074 22.186667-6.561185 45.662815-10.05037 69.973333-10.05037 105.623704 0 195.697778 66.408296 230.817185 159.744C1142.708148 337.806222 1213.62963 426.097778 1213.62963 530.962963c0 125.421037-101.869037 227.555556-227.555556 227.555556l-758.518519 0C101.906963 758.518519 0 656.649481 0 530.962963L0 530.962963zM303.407407 948.148148c-21.086815 0-37.925926-17.142519-37.925926-38.267259l0-75.131259c0-21.466074 16.990815-38.267259 37.925926-38.267259 21.086815 0 37.925926 17.142519 37.925926 38.267259l0 75.131259C341.333333 931.346963 324.342519 948.148148 303.407407 948.148148L303.407407 948.148148zM606.814815 948.148148c-21.086815 0-37.925926-17.142519-37.925926-38.267259l0-75.131259c0-21.466074 16.990815-38.267259 37.925926-38.267259 21.086815 0 37.925926 17.142519 37.925926 38.267259l0 75.131259C644.740741 931.346963 627.749926 948.148148 606.814815 948.148148L606.814815 948.148148zM910.222222 948.148148c-21.086815 0-37.925926-17.142519-37.925926-38.267259l0-75.131259c0-21.466074 16.990815-38.267259 37.925926-38.267259 21.086815 0 37.925926 17.142519 37.925926 38.267259l0 75.131259C948.148148 931.346963 931.157333 948.148148 910.222222 948.148148L910.222222 948.148148zM455.111111 1024c-21.086815 0-37.925926-17.142519-37.925926-38.267259l0-75.131259c0-21.466074 16.990815-38.267259 37.925926-38.267259 21.086815 0 37.925926 17.142519 37.925926 38.267259l0 75.131259C493.037037 1007.198815 476.046222 1024 455.111111 1024L455.111111 1024zM758.518519 1024c-21.086815 0-37.925926-17.142519-37.925926-38.267259l0-75.131259c0-21.466074 16.990815-38.267259 37.925926-38.267259 21.086815 0 37.925926 17.142519 37.925926 38.267259l0 75.131259C796.444444 1007.198815 779.45363 1024 758.518519 1024L758.518519 1024z" />

</svg>
