<?xml version="1.0" encoding="utf-8"?>
<!DOCTYPE svg PUBLIC "-//W3C//DTD SVG 1.1//EN" "http://www.w3.org/Graphics/SVG/1.1/DTD/svg11.dtd">
<svg style="width:308px;height:308px;" version="1.1" id="图形" xmlns="http://www.w3.org/2000/svg" xmlns:xlink="http://www.w3.org/1999/xlink" x="0px" y="0px" width="1024px" height="1024px" viewBox="0 0 1024 1024" enable-background="new 0 0 1024 1024" xml:space="preserve">
  <path class="svgpath" data-index="path_0" fill="#93a3ab" d="M464.37533 832.633554c0 35.945677 29.160133 65.084321 65.13344 65.084321 35.970236 0 65.131393-29.138644 65.131393-65.084321 0-74.928526-65.131393-164.623361-65.131393-164.623361S464.37533 757.705028 464.37533 832.633554zM415.283238 731.179908c-3.173273-5.494131-10.203386-7.375991-15.700587-4.203742l-42.48358 24.51023 0-49.019437c0-6.343475-5.146207-11.486612-11.493775-11.486612-6.348592 0-11.493775 5.143137-11.493775 11.486612l0 49.019437-42.48358-24.51023c-5.497201-3.171226-12.527314-1.290389-15.700587 4.203742-3.174296 5.494131-1.290389 12.517081 4.206812 15.689331l42.48358 24.51023-42.48358 24.51023c-5.497201 3.171226-7.381108 10.1952-4.206812 15.689331 3.173273 5.493108 10.203386 7.375991 15.700587 4.203742l42.48358-24.51023 0 49.019437c0 6.343475 5.14416 11.484565 11.493775 11.484565 6.347568 0 11.493775-5.142114 11.493775-11.484565L357.099071 791.271518l42.48358 24.51023c5.497201 3.171226 12.527314 1.288343 15.700587-4.203742 3.174296-5.494131 1.290389-12.517081-4.206812-15.689331l-42.48358-24.51023 42.48358-24.51023C416.573627 743.696989 418.458557 736.674039 415.283238 731.179908zM783.088138 731.179908c-3.174296-5.494131-10.203386-7.375991-15.700587-4.203742l-42.48358 24.51023 0-49.019437c0-6.343475-5.146207-11.486612-11.493775-11.486612s-11.494799 5.143137-11.494799 11.486612l0 49.018414-42.482557-24.509207c-5.497201-3.171226-12.527314-1.290389-15.700587 4.203742-3.174296 5.494131-1.291412 12.517081 4.206812 15.689331l42.48358 24.51023-42.48358 24.51023c-5.498224 3.171226-7.381108 10.1952-4.206812 15.689331 3.173273 5.493108 10.203386 7.375991 15.700587 4.203742l42.482557-24.509207 0 49.018414c0 6.343475 5.14723 11.484565 11.494799 11.484565 6.347568 0 11.493775-5.142114 11.493775-11.484565L724.903971 791.271518l42.48358 24.51023c5.497201 3.171226 12.526291 1.288343 15.700587-4.203742 3.174296-5.494131 1.290389-12.517081-4.206812-15.689331l-42.48358-24.51023 42.48358-24.51023C784.378527 743.696989 786.263457 736.674039 783.088138 731.179908zM767.048837 185.620581c-16.420995 0-32.402991 1.87879-47.743374 5.429663C668.786882 127.119189 590.535681 86.081541 502.687914 86.081541c-108.314914 0-202.032366 62.392002-247.168356 153.163355-96.427166 1.055029-174.274162 79.479169-174.274162 176.085414 0 97.263208 78.906118 176.109973 176.240957 176.109973 25.604144 0 49.930179-5.462408 71.883167-15.274892 47.366797 38.276768 107.657952 61.216223 173.319417 61.216223 62.131059 0 119.460766-20.531616 165.577083-55.16746 29.465079 15.656585 63.083757 24.539906 98.783841 24.539906 116.378567 0 210.721259-94.27413 210.721259-210.56674S883.427404 185.620581 767.048837 185.620581zM767.048837 537.841551c-41.119513 0-78.141708-17.500583-104.035448-45.446052-37.939077 46.426379-95.66378 76.073606-160.325475 76.073606-67.363224 0-127.199007-32.178887-164.975379-81.984223-19.650549 22.107507-48.308239 36.042891-80.227206 36.042891-59.246359 0-107.276259-47.993061-107.276259-107.197464S198.23897 308.132846 257.485329 308.132846c15.350616 0 29.943986 3.228531 43.147706 9.032724 20.396539-92.75452 103.106286-162.172543 202.054879-162.172543 83.847663 0 156.042939 49.842175 188.538027 121.493052 21.928429-13.898545 47.932686-21.951965 75.822896-21.951965 78.290087 0 141.756561 63.420425 141.756561 141.653207S845.338924 537.841551 767.048837 537.841551z" />

</svg>
