<?xml version="1.0" encoding="utf-8"?>
<!DOCTYPE svg PUBLIC "-//W3C//DTD SVG 1.1//EN" "http://www.w3.org/Graphics/SVG/1.1/DTD/svg11.dtd">
<svg style="width:308px;height:308px;" version="1.1" id="图形" xmlns="http://www.w3.org/2000/svg" xmlns:xlink="http://www.w3.org/1999/xlink" x="0px" y="0px" width="1024px" height="1024px" viewBox="0 0 1024 1024" enable-background="new 0 0 1024 1024" xml:space="preserve">
  <path class="svgpath" data-index="path_0" fill="#93a3ab" d="M235.743676 283.440733c10.183951 10.183951 26.703165 10.183951 36.887115 0 10.183951-10.183951 10.183951-26.703165 0-36.887115L202.954485 176.883108c-10.183951-10.183951-26.703165-10.183951-36.887115 0-10.183951 10.183951-10.183951 26.703165 0 36.887115L235.743676 283.440733zM788.256324 283.440733l69.676306-69.676306c10.183951-10.183951 10.183951-26.703165 0-36.887115-10.183951-10.183951-26.703165-10.183951-36.887115 0l-69.676306 69.676306c-10.183951 10.183951-10.183951 26.703165 0 36.887115C761.553159 293.63048 778.066577 293.63048 788.256324 283.440733zM229.94746 762.289279l-69.676306 69.676306c-10.183951 10.183951-10.183951 26.703165 0 36.887115 10.183951 10.183951 26.703165 10.183951 36.887115 0l69.676306-69.676306c10.183951-10.183951 10.183951-26.703165 0-36.887115C256.650625 752.105328 240.137207 752.105328 229.94746 762.289279zM509.098994 180.888293c14.403595 0 26.08297-11.679374 26.08297-26.08297l0-98.535663c0-14.403595-11.679374-26.08297-26.08297-26.08297s-26.08297 11.679374-26.08297 26.08297l0 98.535663C483.016024 169.214715 494.695399 180.888293 509.098994 180.888293zM978.592448 499.680144l-98.535663 0c-14.403595 0-26.08297 11.679374-26.08297 26.08297s11.679374 26.08297 26.08297 26.08297l98.535663 0c14.403595 0 26.08297-11.679374 26.08297-26.08297S993.00184 499.680144 978.592448 499.680144zM782.460109 762.289279c-10.183951-10.183951-26.703165-10.183951-36.887115 0-10.183951 10.183951-10.183951 26.703165 0 36.887115l69.676306 69.676306c10.183951 10.183951 26.703165 10.183951 36.887115 0 10.183951-10.183951 10.183951-26.703165 0-36.887115L782.460109 762.289279zM511.997102 279.423956c-134.449014 0-243.44105 108.992036-243.44105 243.44105s108.992036 243.44105 243.44105 243.44105 243.44105-108.992036 243.44105-243.44105S646.446116 279.423956 511.997102 279.423956zM511.997102 714.140117c-105.636027 0-191.275111-85.639084-191.275111-191.275111s85.639084-191.275111 191.275111-191.275111 191.275111 85.639084 191.275111 191.275111S617.638925 714.140117 511.997102 714.140117zM509.098994 864.841719c-14.403595 0-26.08297 11.679374-26.08297 26.08297l0 98.535663c0 14.403595 11.679374 26.08297 26.08297 26.08297s26.08297-11.679374 26.08297-26.08297l0-98.535663C535.181964 876.521093 523.508386 864.841719 509.098994 864.841719zM170.020389 525.763114c0-14.403595-11.679374-26.08297-26.08297-26.08297l-98.535663 0c-14.403595 0-26.08297 11.679374-26.08297 26.08297s11.679374 26.08297 26.08297 26.08297l98.535663 0C158.346811 551.846083 170.020389 540.172505 170.020389 525.763114z" />

</svg>
